<svg width="149" height="125" viewBox="0 0 149 125" fill="none" xmlns="http://www.w3.org/2000/svg">
<g clip-path="url(#clip0_2431_9506)">
<path d="M70.2653 52.1344C67.7358 50.8761 66.3379 48.5573 67.1429 46.9555C67.9479 45.3537 70.6505 45.0756 73.1807 46.3347C74.1983 46.8239 75.0835 47.5485 75.762 48.4478L86.4117 53.9141L83.7276 58.8327L73.5138 52.9218C72.3833 52.9213 71.2694 52.6513 70.2653 52.1344Z" fill="#B78876"/>
<path d="M135.752 24.8418H122.458L122.748 29.1555L114.079 56.6554L112.453 74.9887L128.708 77.6848L136.294 43.7143L134.669 28.0771L135.752 24.8418Z" fill="#242424"/>
<path d="M134.94 28.3467L149.028 35.3565L140.358 64.474L141.984 94.1308C141.984 94.1308 119.768 101.141 120.852 81.1897C121.935 61.2388 121.935 58.0035 121.935 58.0035L134.94 28.3467Z" fill="#DBD9F5"/>
<path d="M112.453 31.9793C112.453 31.9793 108.931 29.4254 107.306 33.1999C105.68 36.9744 95.114 56.1165 95.114 56.1165L78.5878 48.8371L75.8785 54.7685C75.8785 54.7685 89.4247 67.7097 97.5523 66.092C105.68 64.4744 112.182 50.4548 112.182 50.4548L112.453 31.9793Z" fill="#DBD9F5"/>
<path d="M140.358 88.7386C140.358 88.7386 140.9 97.3661 139.816 104.376C138.733 111.386 131.418 170.969 131.418 170.969L122.206 170.43L121.394 100.601L108.389 121.091L119.768 151.827L111.911 155.332L95.385 121.631L106.764 83.3465L110.015 73.6406L134.398 76.3367L140.358 88.7386Z" fill="#DBD9F5"/>
<path d="M104.054 90.8951C104.054 90.8951 118.684 95.2088 121.935 58.003L122.671 28.0039L108.931 31.5815L110.557 58.5422L104.054 90.8951Z" fill="#DBD9F5"/>
<path d="M128.979 21.3365C123.593 21.3365 119.226 16.9911 119.226 11.6307C119.226 6.27027 123.593 1.9248 128.979 1.9248C134.366 1.9248 138.733 6.27027 138.733 11.6307C138.733 16.9911 134.366 21.3365 128.979 21.3365Z" fill="#B78876"/>
<path d="M135.211 21.0672C135.211 21.0672 139.545 16.2143 140.087 14.0574C140.629 11.9006 140.629 5.9692 140.087 5.42999C139.545 4.89077 133.585 -0.501366 131.418 0.0378456C129.25 0.577057 124.954 3.27313 121.123 3.27313C120.039 3.27313 119.497 8.66527 119.497 8.66527L123.832 9.20449C123.832 9.20449 129.25 6.50842 128.708 9.20449C128.167 11.9006 132.501 11.9006 132.501 11.9006L131.959 14.0574L133.585 14.5966L134.669 12.4398C134.669 12.4398 134.127 17.2927 132.501 19.4496C130.876 21.6064 135.211 21.0672 135.211 21.0672Z" fill="#DBD9F5"/>
<path d="M139.529 98.704C138.042 101.098 135.596 102.274 134.065 101.332C132.534 100.39 132.499 97.6868 133.987 95.2924C134.568 94.3279 135.373 93.5158 136.334 92.9243L142.764 82.8613L147.445 85.9644L140.61 95.5552C140.507 96.6756 140.137 97.7553 139.529 98.704Z" fill="#B78876"/>
<path d="M146.86 35.3564H149.569C149.569 35.3564 160.406 59.6211 159.864 64.474C159.864 64.474 159.864 68.7877 157.155 72.023C154.446 75.2583 143.067 93.5916 143.067 93.5916L138.191 89.8171L147.944 67.1701L141.984 43.4447L146.86 35.3564Z" fill="#DBD9F5"/>
<path d="M58.9368 69.1063C60.2165 69.1063 61.4362 68.586 62.3137 67.6578C67.9633 61.681 71.0746 53.8713 71.0746 45.6672C71.0746 38.8306 68.9434 32.3034 64.9112 26.7911C64.1143 25.7021 62.8779 25.0187 61.5187 24.9162C60.1382 24.8104 58.7877 25.3136 57.8144 26.2922L41.4311 42.7606C39.7915 44.4087 39.6239 47.0399 41.0413 48.8809L55.1995 67.2713C56.0407 68.3641 57.3161 69.0307 58.6988 69.1003C58.7783 69.1043 58.8577 69.1063 58.9368 69.1063Z" fill="white"/>
<path d="M32.8327 78.712C37.8842 78.712 42.7313 77.5978 47.2393 75.4005C48.8769 74.6025 50.0554 73.1315 50.4728 71.3643C50.8899 69.5971 50.4932 67.7577 49.3839 66.3175L37.5856 50.992C35.4392 48.2042 35.6932 44.2194 38.176 41.7232L50.2538 29.583C51.9996 27.8281 52.7913 25.4213 52.4255 22.9797C52.0579 20.5254 50.5855 18.4408 48.3858 17.2606C43.4261 14.5994 37.806 13.2526 32.1324 13.3737C15.0341 13.7287 0.940376 27.3055 0.046814 44.2823C-0.430485 53.3523 2.75392 61.9622 9.01378 68.526C15.2775 75.0945 23.7365 78.712 32.8327 78.712ZM32.8206 14.4803C38.0747 14.4803 36.8175 19.44 41.4138 21.9059C43.3 22.9179 51.0034 21.0401 51.3186 23.144C51.6317 25.235 50.9537 27.2964 49.4584 28.7995L37.3806 40.9397C34.5063 43.8293 34.2125 48.442 36.6969 51.6693L48.4954 66.9948C49.3999 68.1692 49.7233 69.6689 49.383 71.1098C49.0429 72.5503 48.0821 73.7497 46.7471 74.4005C42.3935 76.5223 37.712 69.0586 32.8327 69.0586C24.0466 69.0586 15.8759 74.1039 9.82556 67.7595C3.77921 61.4193 0.703365 53.1023 1.16463 44.3407C2.02759 27.9434 15.6405 14.8302 32.1557 14.4872C32.3772 14.4827 32.5993 14.4803 32.8206 14.4803Z" fill="#E6E6E6"/>
<path d="M30.6809 46.174C31.3188 45.4321 31.6378 44.3464 31.6378 42.916C31.6378 41.4994 31.3188 40.4198 30.6809 39.678C30.0431 38.9363 29.1597 38.5654 28.0315 38.5654C26.89 38.5654 25.9966 38.9363 25.3519 39.678C24.7072 40.4198 24.3849 41.4994 24.3849 42.916C24.3849 44.3464 24.7072 45.4321 25.3519 46.174C25.9966 46.9158 26.89 47.2867 28.0315 47.2867C29.1597 47.2867 30.0431 46.9158 30.6809 46.174ZM26.8831 45.0212C26.6413 44.5935 26.5206 43.8919 26.5206 42.916C26.5206 41.9671 26.6448 41.2755 26.8933 40.841C27.1419 40.4068 27.5212 40.1894 28.0315 40.1894C28.5285 40.1894 28.8977 40.4068 29.1397 40.841C29.3814 41.2755 29.5022 41.9671 29.5022 42.916C29.5022 43.8783 29.3814 44.577 29.1397 45.0112C28.8977 45.4457 28.5285 45.6627 28.0315 45.6627C27.5078 45.6627 27.1248 45.4492 26.8831 45.0212ZM27.0626 51.132L19.8719 38.7658C18.8792 38.7658 18.2597 39.8362 18.7578 40.6907L25.9564 53.0409C26.9408 53.0409 27.5556 51.9799 27.0626 51.132ZM20.4664 52.0684C21.1043 51.3266 21.4233 50.234 21.4233 48.7903C21.4233 47.3737 21.1043 46.2978 20.4664 45.5625C19.8286 44.8275 18.9386 44.4599 17.7968 44.4599C16.6555 44.4599 15.7654 44.8275 15.1274 45.5625C14.4896 46.2978 14.1704 47.3805 14.1704 48.8105C14.1704 50.2408 14.4896 51.3266 15.1274 52.0684C15.7654 52.8103 16.6555 53.1812 17.7968 53.1812C18.9387 53.1812 19.8286 52.8103 20.4664 52.0684ZM16.6686 50.9056C16.4268 50.4714 16.3059 49.7729 16.3059 48.8105C16.3059 47.8616 16.4303 47.17 16.6786 46.7354C16.9274 46.3012 17.3 46.0839 17.7968 46.0839C18.3074 46.0839 18.6832 46.3012 18.925 46.7354C19.1669 47.17 19.2877 47.8616 19.2877 48.8105C19.2877 49.7729 19.1669 50.4714 18.925 50.9056C18.6832 51.3402 18.3074 51.5572 17.7968 51.5572C17.2865 51.5572 16.9103 51.3402 16.6686 50.9056Z" fill="#DCDCDC"/>
</g>
<defs>
<clipPath id="clip0_2431_9506">
<rect width="160" height="183" fill="white" transform="matrix(-1 0 0 1 160 0)"/>
</clipPath>
</defs>
</svg>
