<svg width="20" height="20" viewBox="0 0 20 20" fill="none" xmlns="http://www.w3.org/2000/svg">
<path d="M18.056 10.0004H16.056C15.7908 10.0004 15.5364 10.1057 15.3489 10.2933C15.1613 10.4808 15.056 10.7352 15.056 11.0004C15.056 11.2656 15.1613 11.5199 15.3489 11.7075C15.5364 11.895 15.7908 12.0004 16.056 12.0004V14.0004H14.87C14.9881 13.68 15.0507 13.3418 15.055 13.0004C15.055 12.34 14.837 11.6981 14.435 11.1742C14.033 10.6503 13.4693 10.2736 12.8315 10.1027C12.1936 9.93181 11.5171 9.97613 10.907 10.2288C10.2969 10.4815 9.78721 10.9285 9.45699 11.5004C9.39029 11.6141 9.34676 11.74 9.32889 11.8706C9.31102 12.0013 9.31918 12.1342 9.35289 12.2617C9.3866 12.3892 9.44519 12.5088 9.5253 12.6136C9.60541 12.7183 9.70545 12.8062 9.81966 12.8721C9.93387 12.9381 10.06 12.9808 10.1908 12.9978C10.3216 13.0148 10.4544 13.0057 10.5817 12.9712C10.709 12.9366 10.8281 12.8772 10.9324 12.7964C11.0366 12.7156 11.1238 12.615 11.189 12.5004C11.2768 12.3484 11.403 12.2221 11.555 12.1344C11.707 12.0466 11.8795 12.0004 12.055 12.0004C12.3202 12.0004 12.5746 12.1057 12.7621 12.2933C12.9496 12.4808 13.055 12.7352 13.055 13.0004C13.055 13.2656 12.9496 13.5199 12.7621 13.7075C12.5746 13.895 12.3202 14.0004 12.055 14.0004C11.7898 14.0004 11.5354 14.1057 11.3479 14.2933C11.1603 14.4808 11.055 14.7352 11.055 15.0004C11.055 15.2656 11.1603 15.5199 11.3479 15.7075C11.5354 15.895 11.7898 16.0004 12.055 16.0004C12.3202 16.0004 12.5746 16.1057 12.7621 16.2933C12.9496 16.4808 13.055 16.7352 13.055 17.0004C13.055 17.2656 12.9496 17.5199 12.7621 17.7075C12.5746 17.895 12.3202 18.0004 12.055 18.0004C11.8795 18.0004 11.707 17.9542 11.555 17.8664C11.403 17.7786 11.2768 17.6524 11.189 17.5004C11.1238 17.3857 11.0366 17.2851 10.9324 17.2043C10.8281 17.1235 10.709 17.0641 10.5817 17.0296C10.4544 16.995 10.3216 16.986 10.1908 17.003C10.06 17.02 9.93387 17.0627 9.81966 17.1286C9.70545 17.1945 9.60541 17.2824 9.5253 17.3872C9.44519 17.492 9.3866 17.6115 9.35289 17.739C9.31918 17.8665 9.31102 17.9994 9.32889 18.1301C9.34676 18.2608 9.39029 18.3866 9.45699 18.5004C9.78721 19.0723 10.2969 19.5192 10.907 19.7719C11.5171 20.0246 12.1936 20.0689 12.8315 19.898C13.4693 19.7271 14.033 19.3505 14.435 18.8266C14.837 18.3027 15.055 17.6607 15.055 17.0004C15.0507 16.6589 14.9881 16.3207 14.87 16.0004H16.055V19.0004C16.055 19.2656 16.1603 19.5199 16.3479 19.7075C16.5354 19.895 16.7898 20.0004 17.055 20.0004C17.3202 20.0004 17.5746 19.895 17.7621 19.7075C17.9496 19.5199 18.055 19.2656 18.055 19.0004V12.0004C18.3202 12.0004 18.5746 11.895 18.7621 11.7075C18.9496 11.5199 19.055 11.2656 19.055 11.0004C19.055 10.7352 18.9496 10.4808 18.7621 10.2933C18.5746 10.1057 18.3212 10.0004 18.056 10.0004ZM6.08499 9.24337C6.11613 9.37156 6.17233 9.49233 6.25035 9.59871C6.32837 9.70509 6.42667 9.79498 6.53959 9.8632C6.6525 9.93142 6.77779 9.97663 6.90825 9.99621C7.03872 10.0158 7.17176 10.0094 7.29973 9.97732C7.4277 9.94527 7.54806 9.8882 7.65388 9.80943C7.7597 9.73065 7.84888 9.63171 7.9163 9.51831C7.98371 9.40491 8.02802 9.2793 8.04668 9.1487C8.06533 9.0181 8.05796 8.88511 8.02499 8.75737L6.26799 1.72737C6.14508 1.23356 5.8605 0.795051 5.45956 0.48167C5.05862 0.168289 4.56437 -0.00195313 4.05549 -0.00195312C3.54661 -0.00195312 3.05235 0.168289 2.65141 0.48167C2.25047 0.795051 1.9659 1.23356 1.84299 1.72737L0.0849887 8.75737C0.0520176 8.88511 0.0446468 9.0181 0.0633012 9.1487C0.0819555 9.2793 0.126266 9.40491 0.193681 9.51831C0.261095 9.63171 0.350281 9.73065 0.456099 9.80943C0.561918 9.8882 0.682279 9.94527 0.810247 9.97732C0.938215 10.0094 1.07126 10.0158 1.20172 9.99621C1.33218 9.97663 1.45748 9.93142 1.57039 9.8632C1.68331 9.79498 1.7816 9.70509 1.85962 9.59871C1.93764 9.49233 1.99385 9.37156 2.02499 9.24337L2.58499 7.00037H5.52499L6.08499 9.24337ZM3.08599 5.00037L3.78299 2.21337C3.80401 2.15798 3.84138 2.1103 3.89014 2.07665C3.9389 2.043 3.99675 2.02498 4.05599 2.02498C4.11523 2.02498 4.17307 2.043 4.22183 2.07665C4.2706 2.1103 4.30797 2.15798 4.32899 2.21337L5.02599 5.00037H3.08599ZM11.056 5.00037H12.056C12.3212 5.00037 12.5756 5.10573 12.7631 5.29326C12.9506 5.4808 13.056 5.73515 13.056 6.00037V7.00037C13.056 7.26559 13.1613 7.51994 13.3489 7.70748C13.5364 7.89501 13.7908 8.00037 14.056 8.00037C14.3212 8.00037 14.5756 7.89501 14.7631 7.70748C14.9506 7.51994 15.056 7.26559 15.056 7.00037V6.00037C15.0552 5.20497 14.7389 4.44236 14.1764 3.87993C13.614 3.31749 12.8514 3.00117 12.056 3.00037H11.056C10.7908 3.00037 10.5364 3.10573 10.3489 3.29326C10.1613 3.4808 10.056 3.73515 10.056 4.00037C10.056 4.26559 10.1613 4.51994 10.3489 4.70748C10.5364 4.89501 10.7908 5.00037 11.056 5.00037ZM7.05599 14.0004H6.05599C5.79077 14.0004 5.53642 13.895 5.34888 13.7075C5.16135 13.5199 5.05599 13.2656 5.05599 13.0004V12.0004C5.05599 11.7352 4.95063 11.4808 4.7631 11.2933C4.57556 11.1057 4.32121 11.0004 4.05599 11.0004C3.79077 11.0004 3.53642 11.1057 3.34888 11.2933C3.16135 11.4808 3.05599 11.7352 3.05599 12.0004V13.0004C3.05678 13.7958 3.37311 14.5584 3.93555 15.1208C4.49798 15.6833 5.26058 15.9996 6.05599 16.0004H7.05599C7.3212 16.0004 7.57556 15.895 7.76309 15.7075C7.95063 15.5199 8.05599 15.2656 8.05599 15.0004C8.05599 14.7352 7.95063 14.4808 7.76309 14.2933C7.57556 14.1057 7.3212 14.0004 7.05599 14.0004Z" fill="white"/>
</svg>
